#N canvas 180 100 760 420 10;
#X text 30 10 UDP test sender for SAM-style Voice Synthesizer (port 7001);
#X msg 30 40 connect 127.0.0.1 7001;
#X msg 210 40 disconnect;
#X obj 30 80 netsend -u;
#X floatatom 30 115 5 0 0 0 connected - - 0;
#X text 85 115 (1 = connected);
#X msg 30 170 send Hello from Pure Data;
#X msg 30 200 send This is a UDP test for SAM mode;
#X msg 30 230 send Better SAM mode check;
#X msg 30 260 send Gothic brutalist interface test;
#X text 30 310 Click connect first\, then click any send message.;
#X text 30 335 App should show text in UDP INBOX and speak it.;
#X connect 1 0 3 0;
#X connect 2 0 3 0;
#X connect 3 0 4 0;
#X connect 6 0 3 0;
#X connect 7 0 3 0;
#X connect 8 0 3 0;
#X connect 9 0 3 0;
